<?xml version="1.0" encoding="UTF-8"?><svg xmlns="http://www.w3.org/2000/svg" viewBox="0 0 459.57 404.61"><defs><style>.cls-1{fill:#ff7289;}.cls-1,.cls-2,.cls-3,.cls-4,.cls-5,.cls-6{fill-rule:evenodd;}.cls-2{fill:#fff;}.cls-7{fill:#dd8080;}.cls-3{fill:#231f20;}.cls-4{fill:#ee2d66;}.cls-5{fill:#3d3c3d;}.cls-8{fill:#eaeaea;}.cls-9{opacity:.62;}</style></defs><g id="Layer_2"><polygon class="cls-2" points="204.26 392.11 184.92 350.3 181.44 284.62 170.02 229.37 179.97 238.43 177.95 209.01 192.13 151.71 194.32 173.01 204.26 151.71 224.45 114.17 260.79 74.2 301.32 46.05 333.57 32.11 368.79 29.4 405.45 36.76 438.47 63.46 450.86 86.29 456.03 119.04 455.21 159.46 449.31 206.06 422.29 272.88 424 275.21 437.32 269.05 434.43 280.24 413.31 332.01 398.24 353.01 372.13 367.34 309.36 392.11 247.19 402.95 218.08 399.46 204.26 392.11"/></g><g id="Ebene_1"><g id="Ebene2"><ellipse class="cls-8" cx="328.28" cy="183.34" rx="109.43" ry="95.2" transform="translate(-19.28 326.81) rotate(-51.61)"/><ellipse class="cls-7" cx="335.06" cy="168.18" rx="11.5" ry=".38" transform="translate(160.54 499.98) rotate(-88.91)"/><path class="cls-6" d="m335.86,157.78s-.1-.1-.19-.1-.09.1-.08.4c.19-.1.28-.11.28-.31l.02.6c.14,1.8.23,5.5.35,9.89h0c-.08,4.3-.27,8.11-.41,9.81-.08.5-.07.9-.16,1-.08.4-.37.41-.46.41s-.38,0-.48-.39c0-.2-.11-.5-.12-1s-.12-1.2-.15-2c-.15-2-.5-4.79-.77-7.88-.15-2.2-.3-4.19-.34-5.89s.02-3.1.09-4c-.02-.6.07-1,.06-1.2.17-.8.83-.92,1.02-.93s.85.08,1.06.87c.29.29.29.39.3.69Zm0,0c.09,0,.1.1,0,0,0,.1,0,0,0,0Z"/></g><g id="Ebene1"><g><path class="cls-5" d="m165.82,225.24c-.1-.2-.1-.39-.1-.59s2.6-1.87,3.11.2c.3,1.08,1,3.74,1.2,4.53.7,1.97,1.3,3.74,1.9,5.71.5,1.77,1,3.64,1.6,5.8,1.8,7.48,3.91,15.54,5.81,23.41,1.3,5.41,2.6,10.72,3.71,15.74,2.1,9.94,2.71,19.97,2.81,30,.2,9.84,0,19.67.9,29.41.5,4.72,1.2,9.54,2.3,14.26,1.1,4.62,3.11,11.12,5.51,17.21,1.6,4.03,3.31,7.87,5.01,10.82,2.5,4.13,4.91,7.18,7.61,9.54,3.11,2.66,6.51,4.53,10.62,6.2,1,.39,1.4,1.48,1.1,2.46-.4.98-1.5,1.48-2.4,1.08-4.51-1.67-8.32-3.64-11.92-6.49-3.11-2.56-5.91-5.8-8.82-10.33-1.9-3.05-3.91-7.08-5.71-11.31-2.6-6.3-4.81-12.98-6.11-17.81-1.9-7.48-2.91-14.95-3.31-22.53-.5-8.66-.3-17.41-.3-26.07-.1-8.46-.4-17.02-2-25.38-.7-3.74-1.5-7.77-2.4-11.8-1.9-9.15-4.11-18.79-5.91-27.54-.5-2.16-.9-4.03-1.3-5.71-.5-1.97-1-3.74-1.6-5.61-.3-.89-.9-3.64-1.2-4.92-.1-.1-.1-.2-.1-.3Z"/><path class="cls-5" d="m176.03,230.74c-.7-2.46-1-5.31-1.2-8.16-.2-4.13.1-8.36.6-12.1.6-4.33,1.2-8.56,2-12.79,1.2-6.39,2.6-12.69,4.31-18.89,2.71-10.33,6.01-20.46,9.82-30.69.3-.79,1.1-1.18,1.8-.89s1.1,1.08.9,1.77c-3.21,10.33-5.81,20.56-8.02,30.79-1.3,6.2-2.4,12.39-3.41,18.69-.7,4.13-1.3,8.36-1.8,12.59-.5,3.44-.8,7.38-.7,11.21.1,2.46.3,4.92.8,7.18.1.59,1.5,6.3,1.9,8.66.1.49.2.79.2.98.4,2.46-2.2,2.95-2.3,2.95-.6,0-1.1-.2-1.6-.59-.3-.3-.7-.69-.9-1.08-.9-1.77-1.7-2.95-2.5-3.93-1.6-1.77-3.41-2.95-5.91-5.41l-4.01-5.21c-.6-.79-.5-1.97.2-2.56.8-.69,1.9-.59,2.6.2l4.01,4.72c1.2,1.08,2.3,1.87,3.21,2.56Z"/><path class="cls-5" d="m191.06,149.39c-.2-.98.4-1.97,1.4-2.16s2,.39,2.2,1.38c.4,1.28.9,4.23,1.3,7.97.2,1.57.4,3.34.4,5.21.1,2.56,0,5.21-.1,7.77-.2,4.72-.7,9.05-.9,11.61,0,.89-.7,1.67-1.6,1.67s-1.6-.69-1.6-1.67c-.2-2.46-.6-6.69-1-11.21-.1-1.57-.2-3.15-.3-4.82-.1-2.16,0-4.33,0-6.39.1-4.33.4-7.97.2-9.35Z"/><path class="cls-5" d="m195.67,181.36c-.2.98-1.2,1.67-2.1,1.48-1-.2-1.6-1.18-1.4-2.16.3-1.38.8-3.34,1.4-5.31.9-2.85,1.9-5.9,2.6-7.67,2.81-7.38,5.81-14.76,9.12-22.04,3.31-7.18,6.91-14.36,10.82-21.25,10.52-18.69,29.66-40.53,51.9-58.73,21.94-17.9,46.89-32.07,69.43-36.5,15.53-3.05,31.46-3.93,46.49-1.48,15.43,2.46,30.06,8.46,42.58,19.28,6.71,5.71,12.72,12.39,17.63,20.17,4.51,7.18,8.22,15.25,10.72,24.59,3.01,11.21,4.01,26.95,3.81,43.58-.3,23.61-3.01,48.79-5.81,64.73-.8,4.33-2,9.64-3.41,14.95-1.5,5.31-3.21,10.62-4.91,14.66-1.8,4.43-3.71,8.75-5.71,13.18-1.9,4.33-3.91,8.75-6.01,13.08l-3.71,7.87c-.9,1.97-2.2,4.53-3.31,6.89-.7,1.67-1.4,3.25-1.8,4.53-.5,1.48-2,2.26-3.51,1.77-1.4-.49-2.2-2.07-1.8-3.44.5-1.48,1.2-3.25,2-5.02,1.1-2.46,2.3-5.12,3.31-7.08l3.71-7.87c2-4.33,4.01-8.66,5.91-12.98,1.9-4.43,3.81-8.75,5.61-13.08,1.6-3.84,3.21-8.85,4.61-13.97s2.6-10.33,3.31-14.46c2.71-15.64,5.41-40.53,5.61-63.84.2-15.94-.8-31.18-3.71-42-2.3-8.75-5.71-16.33-10.02-23.02-4.61-7.38-10.22-13.58-16.53-18.89-11.72-10.03-25.35-15.64-39.78-18-14.43-2.36-29.66-1.57-44.58,1.28-21.94,4.13-46.09,17.9-67.43,35.02-21.94,17.61-40.88,38.76-51.3,56.96-3.91,6.79-7.51,13.77-10.82,20.85-3.31,7.18-6.41,14.36-9.22,21.64-.7,1.77-1.7,4.72-2.6,7.48-.3,1.77-.8,3.54-1.1,4.82Z"/><path class="cls-5" d="m420.6,277.08c-1.2-.39-1.8-1.67-1.3-2.85.4-1.18,1.7-1.77,2.91-1.38.9.39,2.5-.2,4.41-.89,2.91-.98,6.11-2.75,8.82-3.93,1.7-.79,3.11-1.18,3.91-1.57.6-.39,1.4-.2,1.7.39.4.59.2,1.38-.4,1.77-.6.59-1.6,1.48-2.91,2.36-2.1,1.48-5.01,2.95-7.71,4.13-3.91,1.87-7.61,2.66-9.42,1.97Z"/><path class="cls-5" d="m437.93,267.63c.3-.89,1.2-1.38,2.1-1.08s1.3,1.18,1,2.07c-.3.98-1.1,2.85-2.1,5.31-2.81,6.3-7.61,16.03-9.02,19.77-2.2,5.31-4.01,11.41-6.11,17.71-2,6-4.21,12.1-6.71,17.9-3.71,8.56-8.32,16.33-14.23,21.94-2,1.87-4.01,3.84-6.11,5.61-1.5,1.18-3.11,2.26-4.91,3.25-.9.49-2.1.2-2.6-.79-.5-.89-.2-2.07.8-2.56,1.5-.89,2.81-1.87,4.11-2.95,2-1.77,3.81-3.74,5.71-5.61,4.01-4.13,7.11-9.35,9.92-15.15,3.01-6.39,5.41-13.48,7.81-20.36,2.6-7.48,5.21-14.76,7.91-20.85,1.7-3.64,7.01-13.18,10.32-19.38.9-2.26,1.8-3.93,2.1-4.82Z"/><path class="cls-5" d="m389.64,356.95q0,.1.1.2c.3-.1.4-.2.4-.3v-.1q.1,0,.1-.1c8.52-4.03,8.52-.98,1.9,3.15-.2.1-.6.39-1.3.79-.6.3-1.3.3-1.8,0-3.81,1.97-10.02,6.59-11.52,7.28l-27.15,12.2c-8.02,3.54-16.13,6.79-24.35,9.54-8.32,2.75-16.73,5.12-25.15,7.08-16.93,3.93-34.26,6.39-51.6,7.87-2.71.2-12.12-.3-20.64-1.48-5.61-.79-10.92-1.77-13.63-2.95-1-.39-1.4-1.48-1-2.46s1.5-1.38,2.4-1.08c2.6.98,7.51,1.77,12.72,2.36,8.22.89,17.23,1.28,19.74.98,17.13-1.87,34.06-4.72,50.8-8.75,8.32-1.97,16.53-4.33,24.75-6.89,8.12-2.66,16.13-5.51,24.05-8.85l27.45-11.41c1.7-.69,11.02-5.71,13.73-7.08Zm0,0c-.3-.79-.3-1.18.4-.2-.1.1-.2.2-.4.2Zm1.6,2.95c.2.2.3.3.4.2,0,0,.3.1.2-.1-.1-.1-.3-.2-.6-.1Z"/></g><path class="cls-3" d="m225.72,363.7c-1.47,1.71-4.05,2.03-5.8.53-1.75-1.49-2.03-4.06-.55-5.87l2.58-2.88,3.59-3.95c2.67-2.78,5.15-5.66,7.82-8.43,1.84-1.92,3.77-3.63,5.71-5.44l6.08-5.23c.46-.53,1.2-.53,1.66-.11s.55,1.17.09,1.71l-4.23,6.62c-1.47,2.14-2.76,4.27-4.23,6.41-2.21,3.2-4.6,6.3-7,9.4l-3.5,4.38-2.21,2.88Z"/><path class="cls-3" d="m213.2,346.72c-1.41,1.77-4.02,2.16-5.76.69-1.85-1.37-2.17-4.02-.76-5.79,1.63-1.86,3.04-3.44,4.57-4.81,2.17-1.96,4.35-3.53,7.18-5.89l6.41-4.32,3.48-2.16c.54-.39,1.3-.39,1.74.1.43.49.43,1.28-.11,1.67l-2.17,3.24-4.89,6.28c-2.39,2.65-4.24,4.51-6.2,6.58-1.2,1.28-2.28,2.65-3.48,4.42Z"/><path class="cls-3" d="m199.77,311.29c-1.54.53-3.21-.39-3.73-1.93s.39-3.21,1.93-3.73l6.63-1.5c.63-.11,1.98-.29,3.33-.46,1.57-.17,2.96-.21,3.63-.18.41-.12.93.17,1.05.58s-.17.93-.58,1.05c-.82.46-2.57,1.79-4.22,2.71-.82.46-1.68.79-2.09.91l-5.96,2.56Z"/><path class="cls-3" d="m264.72,375.3c-.37,1.59-2.02,2.52-3.61,2.15s-2.52-2.02-2.15-3.61l2.23-6.43c.24-.59.8-1.83,1.37-3.07.69-1.42,1.39-2.62,1.76-3.18.11-.41.64-.7,1.04-.59.41.11.7.64.59,1.04-.04.94.16,3.13.08,5.01-.04.94-.22,1.85-.33,2.26l-.97,6.41Z"/><path class="cls-1" d="m233.62,209.06c0-3.4-1.1-7.2,1.7-13.2,2.6-5.8,6.7-10.5,12.1-14.1,20.2-11.1,37-13.1,51.3-25.9,10.8-9.7,27.5-15.4,41.8-11.4,15.7,4.7,21.8,28.2,32.7,36.4,8.7,6.5,17.5,13,23.9,21.1,2.4,3,6.4,7.8,7.6,11.8,1.2,4.1.8,7.4-.4,11.7-1,3.6-1.6,5.2-2.8,7-.9,1.3-2.2,2.6-4.3,4.7-2.5,2.6-5.5,3.4-8.2,4.1-4.6,1.2-12.9,1.7-17.4,2.2-7.4.7-13.2.7-20.7.1-5.8-.4-12.9-.2-18.7-.9-22.3-3-35.5-6.4-56.1-10.8-12.8-2.9-42.5-7.8-42.5-22.8Z"/><path class="cls-4" d="m231.52,209.06h0c-.1-2.4-.6-5,0-8.4.3-1.7.8-3.6,1.7-5.7,1.4-3.1,3.2-6,5.4-8.5,2.1-2.5,4.6-4.7,7.5-6.7.1,0,.1-.1.2-.1,13.8-7.7,26-11.1,36.9-16.6,4.8-2.4,9.4-5.3,13.7-9.2,5.7-5.1,12.9-9.2,20.6-11.5,7.8-2.3,16.1-2.8,23.8-.7h0c5.3,1.6,9.6,5,13.4,9.3,4.5,5.2,8.2,11.8,12,17.6,2.6,4,5.2,7.6,8.2,9.9,5.2,3.9,10.4,7.8,15.2,12.1,3.4,3,6.5,6.1,9.2,9.5,1.5,1.9,3.5,4.4,5.2,7,1.3,2,2.3,4,2.8,5.8.7,2.4.9,4.6.8,6.9-.1,2-.5,4.1-1.2,6.5-.6,2-1,3.4-1.5,4.6-.5,1.3-1.1,2.2-1.8,3.3-.4.5-.9,1.1-1.4,1.7-.8.9-1.8,1.9-3.2,3.3-1.2,1.2-2.4,2.1-3.7,2.7-1.9,1-4,1.6-5.9,2.1-1.5.4-3.5.7-5.5,1-4.3.6-9.2.9-12.3,1.2-3.8.4-7.2.5-10.6.5s-6.7-.2-10.6-.5c-4-.3-8.6-.3-13-.5-2-.1-4-.3-5.8-.5-8.6-1.2-15.9-2.4-22.7-3.8-10.9-2.2-20.8-4.6-33.5-7.4-8.6-1.9-24.8-4.8-34.7-11-5.6-3.5-9.2-8.1-9.2-13.9Zm4.3,0h0c0,5.7,5.1,9.5,11.6,12.4,9.5,4.3,22,6.4,29.1,7.9,12.7,2.7,22.6,5,33.5,7,6.8,1.3,13.9,2.4,22.4,3.5,1.7.2,3.5.3,5.4.4,4.4.2,9.1.1,13.2.4,3.7.3,6.9.4,10.1.4s6.4-.2,10.1-.6c2.7-.3,6.7-.6,10.4-1,2.4-.3,4.8-.7,6.5-1.1,1.3-.3,2.6-.7,4-1.3,1-.5,2-1.1,3-2.1l4-4.4c.5-.6.8-1.2,1.1-2,.4-1,.8-2.3,1.2-4,.5-1.9.9-3.6,1-5.2.1-1.6-.1-3.2-.6-4.9-.4-1.4-1.2-2.8-2.2-4.3-1.6-2.4-3.5-4.8-4.9-6.5-2.5-3.1-5.4-6-8.5-8.8-4.7-4.1-9.8-7.9-14.9-11.7-3.5-2.7-6.6-6.8-9.6-11.4-3.6-5.6-7.1-11.9-11.5-17-3-3.5-6.4-6.3-10.6-7.6-6.6-1.9-13.8-1.5-20.6.5-6.9,2-13.4,5.6-18.5,10.2-4.7,4.2-9.7,7.3-15,9.9-10.9,5.4-23.1,8.6-36.9,16.1-2.5,1.6-4.7,3.5-6.5,5.7-1.9,2.2-3.5,4.6-4.8,7.3-1,2.2-1.5,4.1-1.6,5.7-.3,2.5.1,4.6.1,6.5Z"/><g><path class="cls-1" d="m414.06,165.47c5-1.59,11.63-6.02,14.46-9.56,5.81-7.32,11.76-27.67-.32-32.24-14.92-5.69-30.85,15.61-31.84,28.99-.8,11.01,10.11,15.27,17.7,12.81Z"/><path class="cls-4" d="m414.61,167.4h0c-4.43,1.39-9.92.74-14.06-1.98-3.81-2.58-6.48-6.78-6.03-12.85.41-5.15,2.75-11.45,6.54-17,2.35-3.36,5.17-6.4,8.18-8.86,5.89-4.6,12.71-6.82,19.28-4.12,5.36,2.2,7.35,7.13,7.44,12.8.14,7.69-3.02,16.78-6.48,21.35-1.48,1.99-4.02,4.26-6.81,6.28-2.61,1.88-5.49,3.41-8.06,4.37Zm-1.17-3.75h0c2.31-.71,5.04-1.91,7.51-3.46,2.66-1.59,5.08-3.44,6.51-5.11,3.45-4.06,7.03-12.51,6.97-19.72-.15-4.85-2.01-9.09-6.68-10.8-5.84-2.01-11.62.33-16.46,4.54-2.74,2.31-5.16,5.28-7.15,8.37-3.27,5.05-5.53,10.63-5.85,15.15-.33,4.43,1.64,7.53,4.4,9.38,3.15,2.29,7.29,2.77,10.75,1.65Z"/></g><g><path class="cls-1" d="m381.51,125.85c4.03-3.36,8.52-9.95,9.8-14.3,2.63-8.97.5-30.06-12.41-29.75-15.96.33-22.72,26.06-18.61,38.83,3.35,10.41,15.06,10.27,21.22,5.22Z"/><path class="cls-4" d="m382.69,127.36h0c-3.58,2.95-8.92,4.41-13.77,3.45-4.5-.96-8.55-3.84-10.42-9.64-1.56-4.93-1.76-11.65-.33-18.21.92-4,2.38-7.87,4.25-11.29,3.73-6.47,9.21-11.09,16.32-11.06,5.8.02,9.49,3.84,11.71,9.06,3.02,7.08,3.51,16.69,2.02,22.22-.62,2.4-2.12,5.46-3.95,8.38-1.71,2.73-3.75,5.31-5.83,7.08Zm-2.44-2.95h0c1.87-1.53,3.96-3.66,5.66-6.03,1.87-2.47,3.42-5.09,4.11-7.18,1.67-5.06,1.81-14.24-.95-20.89-1.96-4.44-5.28-7.67-10.25-7.5-6.17.33-10.65,4.67-13.55,10.39-1.67,3.17-2.8,6.83-3.48,10.45-1.13,5.91-1.13,11.93.27,16.24,1.35,4.23,4.35,6.36,7.6,7.04,3.72.85,7.8-.17,10.59-2.51Z"/></g><g><path class="cls-1" d="m337.34,112.11c1.44-12.06-.42-21.72-3.67-29.05-3.71-8.05-9.42-12.1-15.76-9.49-14.79,6.01-11.92,32.46-3.51,42.91,6.93,8.59,19.13,4.01,22.38-2.8,2.09-4.44,1.26-13.32.49-18.28"/><path class="cls-4" d="m338.21,94.99c.08.06.02.14.02.14.55,2.92,1.17,7.26,1.16,11.26,0,3-.39,5.84-1.31,7.9-1.85,4.12-6.51,7.49-11.65,8.5-4.8.89-9.98-.38-13.85-5.04-2.26-2.82-4.23-6.69-5.56-11.07-1.59-5.7-2.16-12.26-1.19-18.04,1.25-7.32,4.78-13.67,11.51-16.12,3.12-1.15,6.02-.85,8.72.56,3.24,1.69,6.05,4.93,8.28,9.61,1.79,3.6,3.09,7.71,3.88,12.31Zm-2.19,15.88c.61-4.8.62-9.3.24-13.46-.1-.7-.12-1.34-.2-1.9,0,0-.02-.14.04-.22-.63-4.48-1.77-8.46-3.26-11.97-1.89-4.3-4.41-7.45-7.32-8.89-2.3-1.1-4.74-1.19-7.22-.05-5.64,2.51-8.19,8.23-8.79,14.66-.53,5.36.3,11.24,1.95,16.36,1.17,3.76,2.73,7.18,4.7,9.55,2.69,3.4,6.41,4.45,9.77,3.98,4.06-.57,7.87-2.97,9.43-6.04.28-.54.54-1.22.64-2.02Z"/></g><g><path class="cls-1" d="m281.11,137.57c.89-4.4,1.8-9.25,1.53-13.82-.54-8.92-11.95-26.76-23.11-20.16-13.71,8.18-6.88,33.89,3.01,42.95,8.14,7.45,17.1-1.81,18.57-8.97"/><path class="cls-4" d="m282.93,138.21c-1.09,4.98-5.29,10.67-10.4,12.57-3.53,1.28-7.54.94-11.47-2.54-3.83-3.43-7.37-9.3-9.46-15.76-1.18-3.93-1.91-8.07-1.92-12.05.09-7.56,2.76-14.41,9.04-17.85,3.68-1.99,7.25-1.66,10.47-.04,1.23.66,2.51,1.46,3.69,2.44,5.85,4.74,10.47,13.24,10.94,18.72.21,1.93.2,3.85.05,5.82-.18,2.86-.62,5.8-1.15,8.47.31.05.26.14.22.23Zm-3.78-.78c.05-.09-.04-.14,0-.22.66-2.49,1.23-5.24,1.67-7.96.28-1.78.42-3.52.34-5.27-.12-5.06-3.76-13.27-9.09-17.72-1.4-1.21-3.07-2.11-4.62-2.6-2.35-.7-4.86-.46-7.24,1.21-5.07,3.29-6.68,9.24-6.33,15.56.16,3.49.99,7.23,2.18,10.71,1.84,5.65,4.73,10.84,8.08,13.89,3.09,2.91,6.32,2.61,8.92.94,2.97-1.92,5.31-5.43,6.07-8.54Z"/></g><path class="cls-6" d="m417.03,100.49c-.2.2-.5.2-.7,0s-.2-.5,0-.7l5.6-5.4c.6-.5,1.5-.4,2,.3.5.6.4,1.6-.3,2l-6.6,3.8Z"/><path class="cls-6" d="m409.72,90.21c-.12.26-.4.36-.65.25s-.36-.4-.25-.65l3.33-7.03c.38-.68,1.26-.91,1.98-.43.68.38.94,1.35.43,1.98l-4.83,5.89Z"/><path class="cls-6" d="m399.25,83.16c-.02.28-.24.48-.52.46s-.48-.24-.46-.52l.62-7.75c.12-.77.86-1.29,1.7-1.1.77.12,1.36.93,1.1,1.7l-2.43,7.22Z"/></g><g id="Ebene3" class="cls-9"><path class="cls-2" d="m438.44,67.02c.67-1.26,2.21-1.8,3.47-1.17,1.25.63,1.83,2.25,1.16,3.51-.96,1.71-4.14,4.78-8.47,8.38-11.36,9.46-30.81,23.61-35.05,27.03-6.26,5.77-12.52,11.62-18.58,17.48-9.82,9.46-19.35,19.19-28.98,28.83-14.54,14.42-29.18,28.65-43.91,42.89-1.73,1.62-4.43,1.53-5.97-.18-1.64-1.71-1.54-4.41.19-5.95,15.79-14.33,31.2-29.01,47.09-43.25,15.89-14.24,32.16-27.93,48.92-41.35,3.56-3.24,18.78-15.05,29.66-24.87,5.3-4.96,9.53-9.28,10.5-11.35Z"/><path class="cls-2" d="m454.79,105.93c.21-.93,1.14-1.66,2.17-1.76,1.76-.1,2.27.93,2.58,1.97.1.41-.1,1.76-1.45,3.21-2.38,2.59-9.3,8.6-10.85,10.16l-23.97,23.11c-16.94,16.27-65.81,69.55-105.58,109.55-20.35,20.52-38.64,37.31-47.73,45.29-4.13,3.52-10.33,3.11-13.84-1.04s-3.1-10.36,1.03-13.89c8.99-7.67,26.55-24.67,47.31-44.05,15.19-14.1,32.13-29.23,48.35-43.84,28.1-25.29,53.93-48.09,65.5-57.52l25.1-21.45c1.65-1.55,8.68-7.05,11.16-9.54.1,0,.1-.1.21-.21Zm.41,2.07c.31.52.83.83,1.65.83-.62,0-1.24-.31-1.65-.83Z"/></g></g></svg>